<svg width="1280" height="72" viewBox="0 0 1280 72" fill="none" xmlns="http://www.w3.org/2000/svg">
<mask id="path-1-inside-1_1_763" fill="white">
<path d="M0 0H1280V72H0V0Z"/>
</mask>
<path d="M0 0H1280V72H0V0Z" fill="#F7F7F7"/>
<path d="M1280 71H0V73H1280V71Z" fill="#676767" mask="url(#path-1-inside-1_1_763)"/>
<path d="M79.7929 24.5952V24.5963C79.776 24.6253 76.2955 30.6292 71.9507 37.9595C67.5953 45.3077 64 51.1906 64 51.1906L76.3315 51.1365L76.3323 51.1364L76.3297 51.1459C82.3172 51.03 87.7182 47.0934 89.3119 41.1453C89.8102 39.286 89.8853 37.4143 89.5964 35.6255C88.8043 30.3582 84.9149 26.0745 79.7929 24.5952Z" fill="black"/>
<path d="M86.6077 20.8093V20.8104C86.5908 20.8394 83.1102 26.8433 78.7654 34.1736C74.4101 41.5218 70.8148 47.4047 70.8148 47.4047L83.1462 47.3506L83.147 47.3505L83.1445 47.36C89.132 47.2441 94.5329 43.3075 96.1267 37.3594C96.6249 35.5001 96.7001 33.6284 96.4111 31.8396C95.619 26.5724 91.7297 22.2886 86.6077 20.8093Z" fill="#10F2C5"/>
<path d="M112.648 45H106.185V26.7696H112.701C114.535 26.7696 116.114 27.1346 117.437 27.8645C118.76 28.5885 119.778 29.63 120.49 30.989C121.208 32.3479 121.567 33.974 121.567 35.867C121.567 37.766 121.208 39.398 120.49 40.7629C119.778 42.1278 118.754 43.1752 117.419 43.9051C116.09 44.635 114.499 45 112.648 45ZM110.04 41.6975H112.488C113.627 41.6975 114.586 41.4958 115.363 41.0922C116.146 40.6828 116.734 40.0507 117.125 39.1962C117.523 38.3357 117.722 37.226 117.722 35.867C117.722 34.5199 117.523 33.4191 117.125 32.5645C116.734 31.71 116.149 31.081 115.372 30.6774C114.594 30.2739 113.636 30.0721 112.497 30.0721H110.04V41.6975ZM129.39 45.2225C128.351 45.2225 127.41 44.9555 126.568 44.4214C125.731 43.8814 125.066 43.0891 124.574 42.0447C124.087 40.9943 123.844 39.7066 123.844 38.1814C123.844 36.6147 124.096 35.3122 124.6 34.2736C125.105 33.2292 125.775 32.4488 126.612 31.9325C127.455 31.4103 128.378 31.1492 129.381 31.1492C130.146 31.1492 130.784 31.2798 131.294 31.5409C131.811 31.796 132.226 32.1165 132.541 32.5022C132.861 32.882 133.104 33.2559 133.271 33.6238H133.386V26.7696H137.169V45H133.431V42.8102H133.271C133.093 43.19 132.84 43.5669 132.514 43.9407C132.194 44.3086 131.775 44.6143 131.259 44.8576C130.748 45.1009 130.125 45.2225 129.39 45.2225ZM130.591 42.2049C131.202 42.2049 131.719 42.0388 132.14 41.7064C132.567 41.3682 132.894 40.8964 133.119 40.2911C133.351 39.6858 133.466 38.9766 133.466 38.1636C133.466 37.3506 133.354 36.6444 133.128 36.0451C132.903 35.4457 132.576 34.9828 132.149 34.6564C131.722 34.33 131.202 34.1668 130.591 34.1668C129.968 34.1668 129.443 34.336 129.016 34.6742C128.588 35.0125 128.265 35.4813 128.045 36.0807C127.826 36.68 127.716 37.3743 127.716 38.1636C127.716 38.9588 127.826 39.662 128.045 40.2733C128.271 40.8786 128.594 41.3533 129.016 41.6975C129.443 42.0358 129.968 42.2049 130.591 42.2049ZM151.663 35.2261L148.192 35.4397C148.132 35.143 148.005 34.876 147.809 34.6386C147.613 34.3953 147.355 34.2024 147.035 34.06C146.72 33.9116 146.343 33.8375 145.904 33.8375C145.317 33.8375 144.821 33.9621 144.418 34.2113C144.014 34.4546 143.812 34.781 143.812 35.1905C143.812 35.5169 143.943 35.7928 144.204 36.0183C144.465 36.2439 144.913 36.4248 145.548 36.5613L148.023 37.0598C149.352 37.3328 150.343 37.7719 150.996 38.3773C151.649 38.9826 151.975 39.7778 151.975 40.7629C151.975 41.659 151.711 42.4453 151.183 43.1218C150.66 43.7983 149.942 44.3265 149.029 44.7062C148.121 45.0801 147.073 45.267 145.886 45.267C144.076 45.267 142.634 44.8902 141.56 44.1366C140.492 43.377 139.866 42.3444 139.682 41.0388L143.412 40.843C143.524 41.3949 143.797 41.8162 144.231 42.107C144.664 42.3918 145.219 42.5343 145.895 42.5343C146.56 42.5343 147.094 42.4067 147.497 42.1515C147.907 41.8904 148.115 41.5551 148.121 41.1456C148.115 40.8014 147.969 40.5196 147.684 40.3C147.4 40.0745 146.96 39.9024 146.367 39.7837L143.999 39.3119C142.664 39.0449 141.67 38.582 141.017 37.9233C140.37 37.2646 140.047 36.4248 140.047 35.4041C140.047 34.5259 140.284 33.7692 140.759 33.1342C141.24 32.4993 141.913 32.0097 142.78 31.6655C143.652 31.3213 144.673 31.1492 145.842 31.1492C147.569 31.1492 148.928 31.5142 149.919 32.2441C150.916 32.974 151.497 33.968 151.663 35.2261ZM160.523 50.4121C159.294 50.4121 158.241 50.243 157.363 49.9047C156.49 49.5724 155.796 49.1184 155.28 48.5428C154.763 47.9672 154.428 47.3203 154.274 46.6023L157.781 46.1305C157.888 46.4035 158.057 46.6587 158.288 46.896C158.52 47.1334 158.825 47.3233 159.205 47.4657C159.591 47.6141 160.06 47.6883 160.612 47.6883C161.437 47.6883 162.116 47.4865 162.65 47.083C163.19 46.6854 163.46 46.0177 163.46 45.0801V42.5788H163.3C163.134 42.9586 162.885 43.3176 162.552 43.6559C162.22 43.9941 161.793 44.2701 161.27 44.4837C160.748 44.6973 160.125 44.8042 159.401 44.8042C158.374 44.8042 157.44 44.5668 156.597 44.092C155.76 43.6114 155.093 42.8785 154.594 41.8934C154.102 40.9023 153.855 39.6502 153.855 38.1369C153.855 36.588 154.108 35.2944 154.612 34.2558C155.116 33.2173 155.787 32.4399 156.624 31.9236C157.466 31.4073 158.389 31.1492 159.392 31.1492C160.158 31.1492 160.799 31.2798 161.315 31.5409C161.831 31.796 162.247 32.1165 162.561 32.5022C162.882 32.882 163.128 33.2559 163.3 33.6238H163.442V31.3272H167.208V45.1335C167.208 46.2967 166.923 47.2699 166.353 48.0532C165.783 48.8366 164.994 49.4241 163.985 49.8157C162.982 50.2133 161.828 50.4121 160.523 50.4121ZM160.603 41.9557C161.214 41.9557 161.73 41.8043 162.152 41.5017C162.579 41.1931 162.905 40.754 163.131 40.1843C163.362 39.6086 163.478 38.9202 163.478 38.1191C163.478 37.318 163.365 36.6237 163.14 36.0361C162.914 35.4427 162.588 34.9828 162.161 34.6564C161.733 34.33 161.214 34.1668 160.603 34.1668C159.98 34.1668 159.454 34.336 159.027 34.6742C158.6 35.0065 158.276 35.4694 158.057 36.0629C157.837 36.6563 157.728 37.3417 157.728 38.1191C157.728 38.9084 157.837 39.5908 158.057 40.1665C158.282 40.7362 158.606 41.1783 159.027 41.4928C159.454 41.8014 159.98 41.9557 160.603 41.9557ZM174.017 37.0954V45H170.225V31.3272H173.839V33.7396H174C174.302 32.9443 174.81 32.3153 175.522 31.8524C176.234 31.3836 177.097 31.1492 178.112 31.1492C179.062 31.1492 179.889 31.3569 180.596 31.7723C181.302 32.1877 181.851 32.7812 182.242 33.5526C182.634 34.3182 182.83 35.232 182.83 36.2943V45H179.038V36.9708C179.044 36.1341 178.83 35.4813 178.397 35.0125C177.964 34.5377 177.367 34.3003 176.608 34.3003C176.097 34.3003 175.646 34.4101 175.255 34.6297C174.869 34.8493 174.566 35.1697 174.347 35.5911C174.133 36.0065 174.023 36.5079 174.017 37.0954ZM185.819 45V31.3272H189.495V33.7128H189.637C189.887 32.8642 190.305 32.2233 190.892 31.7901C191.48 31.351 192.157 31.1314 192.922 31.1314C193.112 31.1314 193.317 31.1433 193.536 31.167C193.756 31.1907 193.949 31.2234 194.115 31.2649V34.6297C193.937 34.5763 193.691 34.5288 193.376 34.4873C193.061 34.4457 192.774 34.425 192.513 34.425C191.955 34.425 191.456 34.5466 191.017 34.7899C190.584 35.0273 190.24 35.3596 189.985 35.7869C189.735 36.2142 189.611 36.7067 189.611 37.2646V45H185.819Z" fill="black"/>
<rect width="910" height="44" transform="translate(306 14)" fill="white"/>
<g clip-path="url(#clip0_1_763)">
<mask id="path-6-inside-2_1_763" fill="white">
<path d="M306 14H370V58H306V14Z"/>
</mask>
<path d="M370 57H306V59H370V57Z" fill="black" mask="url(#path-6-inside-2_1_763)"/>
<path d="M324.75 34.5156V35.7422H318.594V34.5156H324.75ZM318.828 29.625V41H317.32V29.625H318.828ZM326.062 29.625V41H324.562V29.625H326.062ZM328.141 36.8672V36.6875C328.141 36.0781 328.229 35.513 328.406 34.9922C328.583 34.4661 328.839 34.0104 329.172 33.625C329.505 33.2344 329.909 32.9323 330.383 32.7188C330.857 32.5 331.388 32.3906 331.977 32.3906C332.57 32.3906 333.104 32.5 333.578 32.7188C334.057 32.9323 334.464 33.2344 334.797 33.625C335.135 34.0104 335.393 34.4661 335.57 34.9922C335.747 35.513 335.836 36.0781 335.836 36.6875V36.8672C335.836 37.4766 335.747 38.0417 335.57 38.5625C335.393 39.0833 335.135 39.5391 334.797 39.9297C334.464 40.3151 334.06 40.6172 333.586 40.8359C333.117 41.0495 332.586 41.1562 331.992 41.1562C331.398 41.1562 330.865 41.0495 330.391 40.8359C329.917 40.6172 329.51 40.3151 329.172 39.9297C328.839 39.5391 328.583 39.0833 328.406 38.5625C328.229 38.0417 328.141 37.4766 328.141 36.8672ZM329.586 36.6875V36.8672C329.586 37.2891 329.635 37.6875 329.734 38.0625C329.833 38.4323 329.982 38.7604 330.18 39.0469C330.383 39.3333 330.635 39.5599 330.938 39.7266C331.24 39.888 331.591 39.9688 331.992 39.9688C332.388 39.9688 332.734 39.888 333.031 39.7266C333.333 39.5599 333.583 39.3333 333.781 39.0469C333.979 38.7604 334.128 38.4323 334.227 38.0625C334.331 37.6875 334.383 37.2891 334.383 36.8672V36.6875C334.383 36.2708 334.331 35.8776 334.227 35.5078C334.128 35.1328 333.977 34.8021 333.773 34.5156C333.576 34.224 333.326 33.9948 333.023 33.8281C332.727 33.6615 332.378 33.5781 331.977 33.5781C331.581 33.5781 331.232 33.6615 330.93 33.8281C330.633 33.9948 330.383 34.224 330.18 34.5156C329.982 34.8021 329.833 35.1328 329.734 35.5078C329.635 35.8776 329.586 36.2708 329.586 36.6875ZM339.086 34.2266V41H337.633V32.5469H339.008L339.086 34.2266ZM338.789 36.4531L338.117 36.4297C338.122 35.8516 338.198 35.3177 338.344 34.8281C338.49 34.3333 338.706 33.9036 338.992 33.5391C339.279 33.1745 339.635 32.8932 340.062 32.6953C340.49 32.4922 340.984 32.3906 341.547 32.3906C341.943 32.3906 342.307 32.4479 342.641 32.5625C342.974 32.6719 343.263 32.8464 343.508 33.0859C343.753 33.3255 343.943 33.6328 344.078 34.0078C344.214 34.3828 344.281 34.8359 344.281 35.3672V41H342.836V35.4375C342.836 34.9948 342.76 34.6406 342.609 34.375C342.464 34.1094 342.255 33.9167 341.984 33.7969C341.714 33.6719 341.396 33.6094 341.031 33.6094C340.604 33.6094 340.247 33.6849 339.961 33.8359C339.674 33.987 339.445 34.1953 339.273 34.4609C339.102 34.7266 338.977 35.0312 338.898 35.375C338.826 35.7135 338.789 36.0729 338.789 36.4531ZM344.266 35.6562L343.297 35.9531C343.302 35.4896 343.378 35.0443 343.523 34.6172C343.674 34.1901 343.891 33.8099 344.172 33.4766C344.458 33.1432 344.81 32.8802 345.227 32.6875C345.643 32.4896 346.12 32.3906 346.656 32.3906C347.109 32.3906 347.51 32.4505 347.859 32.5703C348.214 32.6901 348.51 32.875 348.75 33.125C348.995 33.3698 349.18 33.6849 349.305 34.0703C349.43 34.4557 349.492 34.9141 349.492 35.4453V41H348.039V35.4297C348.039 34.9557 347.964 34.5885 347.812 34.3281C347.667 34.0625 347.458 33.8776 347.188 33.7734C346.922 33.6641 346.604 33.6094 346.234 33.6094C345.917 33.6094 345.635 33.6641 345.391 33.7734C345.146 33.8828 344.94 34.0339 344.773 34.2266C344.607 34.4141 344.479 34.6302 344.391 34.875C344.307 35.1198 344.266 35.3802 344.266 35.6562ZM355.188 41.1562C354.599 41.1562 354.065 41.0573 353.586 40.8594C353.112 40.6562 352.703 40.3724 352.359 40.0078C352.021 39.6432 351.76 39.2109 351.578 38.7109C351.396 38.2109 351.305 37.6641 351.305 37.0703V36.7422C351.305 36.0547 351.406 35.4427 351.609 34.9062C351.812 34.3646 352.089 33.9062 352.438 33.5312C352.786 33.1562 353.182 32.8724 353.625 32.6797C354.068 32.487 354.526 32.3906 355 32.3906C355.604 32.3906 356.125 32.4948 356.562 32.7031C357.005 32.9115 357.367 33.2031 357.648 33.5781C357.93 33.9479 358.138 34.3854 358.273 34.8906C358.409 35.3906 358.477 35.9375 358.477 36.5312V37.1797H352.164V36H357.031V35.8906C357.01 35.5156 356.932 35.151 356.797 34.7969C356.667 34.4427 356.458 34.151 356.172 33.9219C355.885 33.6927 355.495 33.5781 355 33.5781C354.672 33.5781 354.37 33.6484 354.094 33.7891C353.818 33.9245 353.581 34.1276 353.383 34.3984C353.185 34.6693 353.031 35 352.922 35.3906C352.812 35.7812 352.758 36.2318 352.758 36.7422V37.0703C352.758 37.4714 352.812 37.849 352.922 38.2031C353.036 38.5521 353.201 38.8594 353.414 39.125C353.633 39.3906 353.896 39.599 354.203 39.75C354.516 39.901 354.87 39.9766 355.266 39.9766C355.776 39.9766 356.208 39.8724 356.562 39.6641C356.917 39.4557 357.227 39.1771 357.492 38.8281L358.367 39.5234C358.185 39.7995 357.953 40.0625 357.672 40.3125C357.391 40.5625 357.044 40.7656 356.633 40.9219C356.227 41.0781 355.745 41.1562 355.188 41.1562Z" fill="black"/>
<path d="M420.188 37.3828H421.688C421.609 38.1016 421.404 38.7448 421.07 39.3125C420.737 39.8802 420.266 40.3307 419.656 40.6641C419.047 40.9922 418.286 41.1562 417.375 41.1562C416.708 41.1562 416.102 41.0312 415.555 40.7812C415.013 40.5312 414.547 40.1771 414.156 39.7188C413.766 39.2552 413.464 38.7005 413.25 38.0547C413.042 37.4036 412.938 36.6797 412.938 35.8828V34.75C412.938 33.9531 413.042 33.2318 413.25 32.5859C413.464 31.9349 413.768 31.3776 414.164 30.9141C414.565 30.4505 415.047 30.0938 415.609 29.8438C416.172 29.5938 416.805 29.4688 417.508 29.4688C418.367 29.4688 419.094 29.6302 419.688 29.9531C420.281 30.276 420.742 30.724 421.07 31.2969C421.404 31.8646 421.609 32.5234 421.688 33.2734H420.188C420.115 32.7422 419.979 32.2865 419.781 31.9062C419.583 31.5208 419.302 31.224 418.938 31.0156C418.573 30.8073 418.096 30.7031 417.508 30.7031C417.003 30.7031 416.557 30.7995 416.172 30.9922C415.792 31.1849 415.471 31.4583 415.211 31.8125C414.956 32.1667 414.763 32.5911 414.633 33.0859C414.503 33.5807 414.438 34.1302 414.438 34.7344V35.8828C414.438 36.4401 414.495 36.9635 414.609 37.4531C414.729 37.9427 414.909 38.3724 415.148 38.7422C415.388 39.112 415.693 39.4036 416.062 39.6172C416.432 39.8255 416.87 39.9297 417.375 39.9297C418.016 39.9297 418.526 39.8281 418.906 39.625C419.286 39.4219 419.573 39.1302 419.766 38.75C419.964 38.3698 420.104 37.9141 420.188 37.3828ZM423.141 36.8672V36.6875C423.141 36.0781 423.229 35.513 423.406 34.9922C423.583 34.4661 423.839 34.0104 424.172 33.625C424.505 33.2344 424.909 32.9323 425.383 32.7188C425.857 32.5 426.388 32.3906 426.977 32.3906C427.57 32.3906 428.104 32.5 428.578 32.7188C429.057 32.9323 429.464 33.2344 429.797 33.625C430.135 34.0104 430.393 34.4661 430.57 34.9922C430.747 35.513 430.836 36.0781 430.836 36.6875V36.8672C430.836 37.4766 430.747 38.0417 430.57 38.5625C430.393 39.0833 430.135 39.5391 429.797 39.9297C429.464 40.3151 429.06 40.6172 428.586 40.8359C428.117 41.0495 427.586 41.1562 426.992 41.1562C426.398 41.1562 425.865 41.0495 425.391 40.8359C424.917 40.6172 424.51 40.3151 424.172 39.9297C423.839 39.5391 423.583 39.0833 423.406 38.5625C423.229 38.0417 423.141 37.4766 423.141 36.8672ZM424.586 36.6875V36.8672C424.586 37.2891 424.635 37.6875 424.734 38.0625C424.833 38.4323 424.982 38.7604 425.18 39.0469C425.383 39.3333 425.635 39.5599 425.938 39.7266C426.24 39.888 426.591 39.9688 426.992 39.9688C427.388 39.9688 427.734 39.888 428.031 39.7266C428.333 39.5599 428.583 39.3333 428.781 39.0469C428.979 38.7604 429.128 38.4323 429.227 38.0625C429.331 37.6875 429.383 37.2891 429.383 36.8672V36.6875C429.383 36.2708 429.331 35.8776 429.227 35.5078C429.128 35.1328 428.977 34.8021 428.773 34.5156C428.576 34.224 428.326 33.9948 428.023 33.8281C427.727 33.6615 427.378 33.5781 426.977 33.5781C426.581 33.5781 426.232 33.6615 425.93 33.8281C425.633 33.9948 425.383 34.224 425.18 34.5156C424.982 34.8021 424.833 35.1328 424.734 35.5078C424.635 35.8776 424.586 36.2708 424.586 36.6875ZM437.82 39.0469V32.5469H439.273V41H437.891L437.82 39.0469ZM438.094 37.2656L438.695 37.25C438.695 37.8125 438.635 38.3333 438.516 38.8125C438.401 39.2865 438.214 39.6979 437.953 40.0469C437.693 40.3958 437.352 40.6693 436.93 40.8672C436.508 41.0599 435.995 41.1562 435.391 41.1562C434.979 41.1562 434.602 41.0964 434.258 40.9766C433.919 40.8568 433.628 40.6719 433.383 40.4219C433.138 40.1719 432.948 39.8464 432.812 39.4453C432.682 39.0443 432.617 38.5625 432.617 38V32.5469H434.062V38.0156C434.062 38.3958 434.104 38.7109 434.188 38.9609C434.276 39.2057 434.393 39.401 434.539 39.5469C434.69 39.6875 434.857 39.7865 435.039 39.8438C435.227 39.901 435.419 39.9297 435.617 39.9297C436.232 39.9297 436.719 39.8125 437.078 39.5781C437.438 39.3385 437.695 39.0182 437.852 38.6172C438.013 38.2109 438.094 37.7604 438.094 37.2656ZM442.922 33.875V41H441.477V32.5469H442.883L442.922 33.875ZM445.562 32.5L445.555 33.8438C445.435 33.8177 445.32 33.8021 445.211 33.7969C445.107 33.7865 444.987 33.7812 444.852 33.7812C444.518 33.7812 444.224 33.8333 443.969 33.9375C443.714 34.0417 443.497 34.1875 443.32 34.375C443.143 34.5625 443.003 34.7865 442.898 35.0469C442.799 35.3021 442.734 35.5833 442.703 35.8906L442.297 36.125C442.297 35.6146 442.346 35.1354 442.445 34.6875C442.549 34.2396 442.708 33.8438 442.922 33.5C443.135 33.151 443.406 32.8802 443.734 32.6875C444.068 32.4896 444.464 32.3906 444.922 32.3906C445.026 32.3906 445.146 32.4036 445.281 32.4297C445.417 32.4505 445.51 32.474 445.562 32.5ZM451.82 38.7578C451.82 38.5495 451.773 38.3568 451.68 38.1797C451.591 37.9974 451.406 37.8333 451.125 37.6875C450.849 37.5365 450.432 37.4062 449.875 37.2969C449.406 37.1979 448.982 37.0807 448.602 36.9453C448.227 36.8099 447.906 36.6458 447.641 36.4531C447.38 36.2604 447.18 36.0339 447.039 35.7734C446.898 35.513 446.828 35.2083 446.828 34.8594C446.828 34.526 446.901 34.2109 447.047 33.9141C447.198 33.6172 447.409 33.3542 447.68 33.125C447.956 32.8958 448.286 32.7161 448.672 32.5859C449.057 32.4557 449.487 32.3906 449.961 32.3906C450.638 32.3906 451.216 32.5104 451.695 32.75C452.174 32.9896 452.542 33.3099 452.797 33.7109C453.052 34.1068 453.18 34.5469 453.18 35.0312H451.734C451.734 34.7969 451.664 34.5703 451.523 34.3516C451.388 34.1276 451.188 33.9427 450.922 33.7969C450.661 33.651 450.341 33.5781 449.961 33.5781C449.56 33.5781 449.234 33.6406 448.984 33.7656C448.74 33.8854 448.56 34.0391 448.445 34.2266C448.336 34.4141 448.281 34.612 448.281 34.8203C448.281 34.9766 448.307 35.1172 448.359 35.2422C448.417 35.362 448.516 35.474 448.656 35.5781C448.797 35.6771 448.995 35.7708 449.25 35.8594C449.505 35.9479 449.831 36.0365 450.227 36.125C450.919 36.2812 451.49 36.4688 451.938 36.6875C452.385 36.9062 452.719 37.1745 452.938 37.4922C453.156 37.8099 453.266 38.1953 453.266 38.6484C453.266 39.0182 453.188 39.3568 453.031 39.6641C452.88 39.9714 452.659 40.237 452.367 40.4609C452.081 40.6797 451.737 40.8516 451.336 40.9766C450.94 41.0964 450.495 41.1562 450 41.1562C449.255 41.1562 448.625 41.0234 448.109 40.7578C447.594 40.4922 447.203 40.1484 446.938 39.7266C446.672 39.3047 446.539 38.8594 446.539 38.3906H447.992C448.013 38.7865 448.128 39.1016 448.336 39.3359C448.544 39.5651 448.799 39.7292 449.102 39.8281C449.404 39.9219 449.703 39.9688 450 39.9688C450.396 39.9688 450.727 39.9167 450.992 39.8125C451.263 39.7083 451.469 39.5651 451.609 39.3828C451.75 39.2005 451.82 38.9922 451.82 38.7578ZM458.672 41.1562C458.083 41.1562 457.549 41.0573 457.07 40.8594C456.596 40.6562 456.188 40.3724 455.844 40.0078C455.505 39.6432 455.245 39.2109 455.062 38.7109C454.88 38.2109 454.789 37.6641 454.789 37.0703V36.7422C454.789 36.0547 454.891 35.4427 455.094 34.9062C455.297 34.3646 455.573 33.9062 455.922 33.5312C456.271 33.1562 456.667 32.8724 457.109 32.6797C457.552 32.487 458.01 32.3906 458.484 32.3906C459.089 32.3906 459.609 32.4948 460.047 32.7031C460.49 32.9115 460.852 33.2031 461.133 33.5781C461.414 33.9479 461.622 34.3854 461.758 34.8906C461.893 35.3906 461.961 35.9375 461.961 36.5312V37.1797H455.648V36H460.516V35.8906C460.495 35.5156 460.417 35.151 460.281 34.7969C460.151 34.4427 459.943 34.151 459.656 33.9219C459.37 33.6927 458.979 33.5781 458.484 33.5781C458.156 33.5781 457.854 33.6484 457.578 33.7891C457.302 33.9245 457.065 34.1276 456.867 34.3984C456.669 34.6693 456.516 35 456.406 35.3906C456.297 35.7812 456.242 36.2318 456.242 36.7422V37.0703C456.242 37.4714 456.297 37.849 456.406 38.2031C456.521 38.5521 456.685 38.8594 456.898 39.125C457.117 39.3906 457.38 39.599 457.688 39.75C458 39.901 458.354 39.9766 458.75 39.9766C459.26 39.9766 459.693 39.8724 460.047 39.6641C460.401 39.4557 460.711 39.1771 460.977 38.8281L461.852 39.5234C461.669 39.7995 461.438 40.0625 461.156 40.3125C460.875 40.5625 460.529 40.7656 460.117 40.9219C459.711 41.0781 459.229 41.1562 458.672 41.1562ZM468.57 38.7578C468.57 38.5495 468.523 38.3568 468.43 38.1797C468.341 37.9974 468.156 37.8333 467.875 37.6875C467.599 37.5365 467.182 37.4062 466.625 37.2969C466.156 37.1979 465.732 37.0807 465.352 36.9453C464.977 36.8099 464.656 36.6458 464.391 36.4531C464.13 36.2604 463.93 36.0339 463.789 35.7734C463.648 35.513 463.578 35.2083 463.578 34.8594C463.578 34.526 463.651 34.2109 463.797 33.9141C463.948 33.6172 464.159 33.3542 464.43 33.125C464.706 32.8958 465.036 32.7161 465.422 32.5859C465.807 32.4557 466.237 32.3906 466.711 32.3906C467.388 32.3906 467.966 32.5104 468.445 32.75C468.924 32.9896 469.292 33.3099 469.547 33.7109C469.802 34.1068 469.93 34.5469 469.93 35.0312H468.484C468.484 34.7969 468.414 34.5703 468.273 34.3516C468.138 34.1276 467.938 33.9427 467.672 33.7969C467.411 33.651 467.091 33.5781 466.711 33.5781C466.31 33.5781 465.984 33.6406 465.734 33.7656C465.49 33.8854 465.31 34.0391 465.195 34.2266C465.086 34.4141 465.031 34.612 465.031 34.8203C465.031 34.9766 465.057 35.1172 465.109 35.2422C465.167 35.362 465.266 35.474 465.406 35.5781C465.547 35.6771 465.745 35.7708 466 35.8594C466.255 35.9479 466.581 36.0365 466.977 36.125C467.669 36.2812 468.24 36.4688 468.688 36.6875C469.135 36.9062 469.469 37.1745 469.688 37.4922C469.906 37.8099 470.016 38.1953 470.016 38.6484C470.016 39.0182 469.938 39.3568 469.781 39.6641C469.63 39.9714 469.409 40.237 469.117 40.4609C468.831 40.6797 468.487 40.8516 468.086 40.9766C467.69 41.0964 467.245 41.1562 466.75 41.1562C466.005 41.1562 465.375 41.0234 464.859 40.7578C464.344 40.4922 463.953 40.1484 463.688 39.7266C463.422 39.3047 463.289 38.8594 463.289 38.3906H464.742C464.763 38.7865 464.878 39.1016 465.086 39.3359C465.294 39.5651 465.549 39.7292 465.852 39.8281C466.154 39.9219 466.453 39.9688 466.75 39.9688C467.146 39.9688 467.477 39.9167 467.742 39.8125C468.013 39.7083 468.219 39.5651 468.359 39.3828C468.5 39.2005 468.57 38.9922 468.57 38.7578Z" fill="black"/>
<path d="M530.383 38.125C530.383 37.8594 530.341 37.625 530.258 37.4219C530.18 37.2135 530.039 37.026 529.836 36.8594C529.638 36.6927 529.362 36.5339 529.008 36.3828C528.659 36.2318 528.216 36.0781 527.68 35.9219C527.117 35.7552 526.609 35.5703 526.156 35.3672C525.703 35.1589 525.315 34.9219 524.992 34.6562C524.669 34.3906 524.422 34.0859 524.25 33.7422C524.078 33.3984 523.992 33.0052 523.992 32.5625C523.992 32.1198 524.083 31.7109 524.266 31.3359C524.448 30.9609 524.708 30.6354 525.047 30.3594C525.391 30.0781 525.799 29.8594 526.273 29.7031C526.747 29.5469 527.276 29.4688 527.859 29.4688C528.714 29.4688 529.438 29.6328 530.031 29.9609C530.63 30.2839 531.086 30.7083 531.398 31.2344C531.711 31.7552 531.867 32.3125 531.867 32.9062H530.367C530.367 32.4792 530.276 32.1016 530.094 31.7734C529.911 31.4401 529.635 31.1797 529.266 30.9922C528.896 30.7995 528.427 30.7031 527.859 30.7031C527.323 30.7031 526.88 30.7839 526.531 30.9453C526.182 31.1068 525.922 31.3255 525.75 31.6016C525.583 31.8776 525.5 32.1927 525.5 32.5469C525.5 32.7865 525.549 33.0052 525.648 33.2031C525.753 33.3958 525.911 33.5755 526.125 33.7422C526.344 33.9089 526.62 34.0625 526.953 34.2031C527.292 34.3438 527.695 34.4792 528.164 34.6094C528.81 34.7917 529.367 34.9948 529.836 35.2188C530.305 35.4427 530.69 35.6953 530.992 35.9766C531.299 36.2526 531.526 36.5677 531.672 36.9219C531.823 37.2708 531.898 37.6667 531.898 38.1094C531.898 38.5729 531.805 38.9922 531.617 39.3672C531.43 39.7422 531.161 40.0625 530.812 40.3281C530.464 40.5938 530.044 40.7995 529.555 40.9453C529.07 41.0859 528.529 41.1562 527.93 41.1562C527.404 41.1562 526.885 41.0833 526.375 40.9375C525.87 40.7917 525.409 40.5729 524.992 40.2812C524.581 39.9896 524.25 39.6302 524 39.2031C523.755 38.7708 523.633 38.2708 523.633 37.7031H525.133C525.133 38.0938 525.208 38.4297 525.359 38.7109C525.51 38.987 525.716 39.2161 525.977 39.3984C526.242 39.5807 526.542 39.7161 526.875 39.8047C527.214 39.888 527.565 39.9297 527.93 39.9297C528.456 39.9297 528.901 39.8568 529.266 39.7109C529.63 39.5651 529.906 39.3568 530.094 39.0859C530.286 38.8151 530.383 38.4948 530.383 38.125ZM537.109 41.1562C536.521 41.1562 535.987 41.0573 535.508 40.8594C535.034 40.6562 534.625 40.3724 534.281 40.0078C533.943 39.6432 533.682 39.2109 533.5 38.7109C533.318 38.2109 533.227 37.6641 533.227 37.0703V36.7422C533.227 36.0547 533.328 35.4427 533.531 34.9062C533.734 34.3646 534.01 33.9062 534.359 33.5312C534.708 33.1562 535.104 32.8724 535.547 32.6797C535.99 32.487 536.448 32.3906 536.922 32.3906C537.526 32.3906 538.047 32.4948 538.484 32.7031C538.927 32.9115 539.289 33.2031 539.57 33.5781C539.852 33.9479 540.06 34.3854 540.195 34.8906C540.331 35.3906 540.398 35.9375 540.398 36.5312V37.1797H534.086V36H538.953V35.8906C538.932 35.5156 538.854 35.151 538.719 34.7969C538.589 34.4427 538.38 34.151 538.094 33.9219C537.807 33.6927 537.417 33.5781 536.922 33.5781C536.594 33.5781 536.292 33.6484 536.016 33.7891C535.74 33.9245 535.503 34.1276 535.305 34.3984C535.107 34.6693 534.953 35 534.844 35.3906C534.734 35.7812 534.68 36.2318 534.68 36.7422V37.0703C534.68 37.4714 534.734 37.849 534.844 38.2031C534.958 38.5521 535.122 38.8594 535.336 39.125C535.555 39.3906 535.818 39.599 536.125 39.75C536.438 39.901 536.792 39.9766 537.188 39.9766C537.698 39.9766 538.13 39.8724 538.484 39.6641C538.839 39.4557 539.148 39.1771 539.414 38.8281L540.289 39.5234C540.107 39.7995 539.875 40.0625 539.594 40.3125C539.312 40.5625 538.966 40.7656 538.555 40.9219C538.148 41.0781 537.667 41.1562 537.109 41.1562ZM543.531 33.875V41H542.086V32.5469H543.492L543.531 33.875ZM546.172 32.5L546.164 33.8438C546.044 33.8177 545.93 33.8021 545.82 33.7969C545.716 33.7865 545.596 33.7812 545.461 33.7812C545.128 33.7812 544.833 33.8333 544.578 33.9375C544.323 34.0417 544.107 34.1875 543.93 34.375C543.753 34.5625 543.612 34.7865 543.508 35.0469C543.409 35.3021 543.344 35.5833 543.312 35.8906L542.906 36.125C542.906 35.6146 542.956 35.1354 543.055 34.6875C543.159 34.2396 543.318 33.8438 543.531 33.5C543.745 33.151 544.016 32.8802 544.344 32.6875C544.677 32.4896 545.073 32.3906 545.531 32.3906C545.635 32.3906 545.755 32.4036 545.891 32.4297C546.026 32.4505 546.12 32.474 546.172 32.5ZM550.219 39.6953L552.531 32.5469H554.008L550.969 41H550L550.219 39.6953ZM548.289 32.5469L550.672 39.7344L550.836 41H549.867L546.805 32.5469H548.289ZM556.969 32.5469V41H555.516V32.5469H556.969ZM555.406 30.3047C555.406 30.0703 555.477 29.8724 555.617 29.7109C555.763 29.5495 555.977 29.4688 556.258 29.4688C556.534 29.4688 556.745 29.5495 556.891 29.7109C557.042 29.8724 557.117 30.0703 557.117 30.3047C557.117 30.5286 557.042 30.7214 556.891 30.8828C556.745 31.0391 556.534 31.1172 556.258 31.1172C555.977 31.1172 555.763 31.0391 555.617 30.8828C555.477 30.7214 555.406 30.5286 555.406 30.3047ZM562.672 39.9688C563.016 39.9688 563.333 39.8984 563.625 39.7578C563.917 39.6172 564.156 39.4245 564.344 39.1797C564.531 38.9297 564.638 38.6458 564.664 38.3281H566.039C566.013 38.8281 565.844 39.2943 565.531 39.7266C565.224 40.1536 564.82 40.5 564.32 40.7656C563.82 41.026 563.271 41.1562 562.672 41.1562C562.036 41.1562 561.482 41.0443 561.008 40.8203C560.539 40.5964 560.148 40.2891 559.836 39.8984C559.529 39.5078 559.297 39.0599 559.141 38.5547C558.99 38.0443 558.914 37.5052 558.914 36.9375V36.6094C558.914 36.0417 558.99 35.5052 559.141 35C559.297 34.4896 559.529 34.0391 559.836 33.6484C560.148 33.2578 560.539 32.9505 561.008 32.7266C561.482 32.5026 562.036 32.3906 562.672 32.3906C563.333 32.3906 563.911 32.526 564.406 32.7969C564.901 33.0625 565.289 33.4271 565.57 33.8906C565.857 34.349 566.013 34.8698 566.039 35.4531H564.664C564.638 35.1042 564.539 34.7891 564.367 34.5078C564.201 34.2266 563.971 34.0026 563.68 33.8359C563.393 33.6641 563.057 33.5781 562.672 33.5781C562.229 33.5781 561.857 33.6667 561.555 33.8438C561.258 34.0156 561.021 34.25 560.844 34.5469C560.672 34.8385 560.547 35.1641 560.469 35.5234C560.396 35.8776 560.359 36.2396 560.359 36.6094V36.9375C560.359 37.3073 560.396 37.6719 560.469 38.0312C560.542 38.3906 560.664 38.7161 560.836 39.0078C561.013 39.2995 561.25 39.5339 561.547 39.7109C561.849 39.8828 562.224 39.9688 562.672 39.9688ZM571.172 41.1562C570.583 41.1562 570.049 41.0573 569.57 40.8594C569.096 40.6562 568.688 40.3724 568.344 40.0078C568.005 39.6432 567.745 39.2109 567.562 38.7109C567.38 38.2109 567.289 37.6641 567.289 37.0703V36.7422C567.289 36.0547 567.391 35.4427 567.594 34.9062C567.797 34.3646 568.073 33.9062 568.422 33.5312C568.771 33.1562 569.167 32.8724 569.609 32.6797C570.052 32.487 570.51 32.3906 570.984 32.3906C571.589 32.3906 572.109 32.4948 572.547 32.7031C572.99 32.9115 573.352 33.2031 573.633 33.5781C573.914 33.9479 574.122 34.3854 574.258 34.8906C574.393 35.3906 574.461 35.9375 574.461 36.5312V37.1797H568.148V36H573.016V35.8906C572.995 35.5156 572.917 35.151 572.781 34.7969C572.651 34.4427 572.443 34.151 572.156 33.9219C571.87 33.6927 571.479 33.5781 570.984 33.5781C570.656 33.5781 570.354 33.6484 570.078 33.7891C569.802 33.9245 569.565 34.1276 569.367 34.3984C569.169 34.6693 569.016 35 568.906 35.3906C568.797 35.7812 568.742 36.2318 568.742 36.7422V37.0703C568.742 37.4714 568.797 37.849 568.906 38.2031C569.021 38.5521 569.185 38.8594 569.398 39.125C569.617 39.3906 569.88 39.599 570.188 39.75C570.5 39.901 570.854 39.9766 571.25 39.9766C571.76 39.9766 572.193 39.8724 572.547 39.6641C572.901 39.4557 573.211 39.1771 573.477 38.8281L574.352 39.5234C574.169 39.7995 573.938 40.0625 573.656 40.3125C573.375 40.5625 573.029 40.7656 572.617 40.9219C572.211 41.0781 571.729 41.1562 571.172 41.1562ZM581.07 38.7578C581.07 38.5495 581.023 38.3568 580.93 38.1797C580.841 37.9974 580.656 37.8333 580.375 37.6875C580.099 37.5365 579.682 37.4062 579.125 37.2969C578.656 37.1979 578.232 37.0807 577.852 36.9453C577.477 36.8099 577.156 36.6458 576.891 36.4531C576.63 36.2604 576.43 36.0339 576.289 35.7734C576.148 35.513 576.078 35.2083 576.078 34.8594C576.078 34.526 576.151 34.2109 576.297 33.9141C576.448 33.6172 576.659 33.3542 576.93 33.125C577.206 32.8958 577.536 32.7161 577.922 32.5859C578.307 32.4557 578.737 32.3906 579.211 32.3906C579.888 32.3906 580.466 32.5104 580.945 32.75C581.424 32.9896 581.792 33.3099 582.047 33.7109C582.302 34.1068 582.43 34.5469 582.43 35.0312H580.984C580.984 34.7969 580.914 34.5703 580.773 34.3516C580.638 34.1276 580.438 33.9427 580.172 33.7969C579.911 33.651 579.591 33.5781 579.211 33.5781C578.81 33.5781 578.484 33.6406 578.234 33.7656C577.99 33.8854 577.81 34.0391 577.695 34.2266C577.586 34.4141 577.531 34.612 577.531 34.8203C577.531 34.9766 577.557 35.1172 577.609 35.2422C577.667 35.362 577.766 35.474 577.906 35.5781C578.047 35.6771 578.245 35.7708 578.5 35.8594C578.755 35.9479 579.081 36.0365 579.477 36.125C580.169 36.2812 580.74 36.4688 581.188 36.6875C581.635 36.9062 581.969 37.1745 582.188 37.4922C582.406 37.8099 582.516 38.1953 582.516 38.6484C582.516 39.0182 582.438 39.3568 582.281 39.6641C582.13 39.9714 581.909 40.237 581.617 40.4609C581.331 40.6797 580.987 40.8516 580.586 40.9766C580.19 41.0964 579.745 41.1562 579.25 41.1562C578.505 41.1562 577.875 41.0234 577.359 40.7578C576.844 40.4922 576.453 40.1484 576.188 39.7266C575.922 39.3047 575.789 38.8594 575.789 38.3906H577.242C577.263 38.7865 577.378 39.1016 577.586 39.3359C577.794 39.5651 578.049 39.7292 578.352 39.8281C578.654 39.9219 578.953 39.9688 579.25 39.9688C579.646 39.9688 579.977 39.9167 580.242 39.8125C580.513 39.7083 580.719 39.5651 580.859 39.3828C581 39.2005 581.07 38.9922 581.07 38.7578Z" fill="black"/>
<path d="M641.531 30.6328L637.766 41H636.227L640.562 29.625H641.555L641.531 30.6328ZM644.688 41L640.914 30.6328L640.891 29.625H641.883L646.234 41H644.688ZM644.492 36.7891V38.0234H638.102V36.7891H644.492ZM650.922 39.9688C651.266 39.9688 651.583 39.8984 651.875 39.7578C652.167 39.6172 652.406 39.4245 652.594 39.1797C652.781 38.9297 652.888 38.6458 652.914 38.3281H654.289C654.263 38.8281 654.094 39.2943 653.781 39.7266C653.474 40.1536 653.07 40.5 652.57 40.7656C652.07 41.026 651.521 41.1562 650.922 41.1562C650.286 41.1562 649.732 41.0443 649.258 40.8203C648.789 40.5964 648.398 40.2891 648.086 39.8984C647.779 39.5078 647.547 39.0599 647.391 38.5547C647.24 38.0443 647.164 37.5052 647.164 36.9375V36.6094C647.164 36.0417 647.24 35.5052 647.391 35C647.547 34.4896 647.779 34.0391 648.086 33.6484C648.398 33.2578 648.789 32.9505 649.258 32.7266C649.732 32.5026 650.286 32.3906 650.922 32.3906C651.583 32.3906 652.161 32.526 652.656 32.7969C653.151 33.0625 653.539 33.4271 653.82 33.8906C654.107 34.349 654.263 34.8698 654.289 35.4531H652.914C652.888 35.1042 652.789 34.7891 652.617 34.5078C652.451 34.2266 652.221 34.0026 651.93 33.8359C651.643 33.6641 651.307 33.5781 650.922 33.5781C650.479 33.5781 650.107 33.6667 649.805 33.8438C649.508 34.0156 649.271 34.25 649.094 34.5469C648.922 34.8385 648.797 35.1641 648.719 35.5234C648.646 35.8776 648.609 36.2396 648.609 36.6094V36.9375C648.609 37.3073 648.646 37.6719 648.719 38.0312C648.792 38.3906 648.914 38.7161 649.086 39.0078C649.263 39.2995 649.5 39.5339 649.797 39.7109C650.099 39.8828 650.474 39.9688 650.922 39.9688ZM657.359 29V41H655.914V29H657.359ZM657.016 36.4531L656.414 36.4297C656.419 35.8516 656.505 35.3177 656.672 34.8281C656.839 34.3333 657.073 33.9036 657.375 33.5391C657.677 33.1745 658.036 32.8932 658.453 32.6953C658.875 32.4922 659.341 32.3906 659.852 32.3906C660.268 32.3906 660.643 32.4479 660.977 32.5625C661.31 32.6719 661.594 32.849 661.828 33.0938C662.068 33.3385 662.25 33.6562 662.375 34.0469C662.5 34.4323 662.562 34.9036 662.562 35.4609V41H661.109V35.4453C661.109 35.0026 661.044 34.6484 660.914 34.3828C660.784 34.112 660.594 33.9167 660.344 33.7969C660.094 33.6719 659.786 33.6094 659.422 33.6094C659.062 33.6094 658.734 33.6849 658.438 33.8359C658.146 33.987 657.893 34.1953 657.68 34.4609C657.471 34.7266 657.307 35.0312 657.188 35.375C657.073 35.7135 657.016 36.0729 657.016 36.4531ZM666.297 32.5469V41H664.844V32.5469H666.297ZM664.734 30.3047C664.734 30.0703 664.805 29.8724 664.945 29.7109C665.091 29.5495 665.305 29.4688 665.586 29.4688C665.862 29.4688 666.073 29.5495 666.219 29.7109C666.37 29.8724 666.445 30.0703 666.445 30.3047C666.445 30.5286 666.37 30.7214 666.219 30.8828C666.073 31.0391 665.862 31.1172 665.586 31.1172C665.305 31.1172 665.091 31.0391 664.945 30.8828C664.805 30.7214 664.734 30.5286 664.734 30.3047ZM672.125 41.1562C671.536 41.1562 671.003 41.0573 670.523 40.8594C670.049 40.6562 669.641 40.3724 669.297 40.0078C668.958 39.6432 668.698 39.2109 668.516 38.7109C668.333 38.2109 668.242 37.6641 668.242 37.0703V36.7422C668.242 36.0547 668.344 35.4427 668.547 34.9062C668.75 34.3646 669.026 33.9062 669.375 33.5312C669.724 33.1562 670.12 32.8724 670.562 32.6797C671.005 32.487 671.464 32.3906 671.938 32.3906C672.542 32.3906 673.062 32.4948 673.5 32.7031C673.943 32.9115 674.305 33.2031 674.586 33.5781C674.867 33.9479 675.076 34.3854 675.211 34.8906C675.346 35.3906 675.414 35.9375 675.414 36.5312V37.1797H669.102V36H673.969V35.8906C673.948 35.5156 673.87 35.151 673.734 34.7969C673.604 34.4427 673.396 34.151 673.109 33.9219C672.823 33.6927 672.432 33.5781 671.938 33.5781C671.609 33.5781 671.307 33.6484 671.031 33.7891C670.755 33.9245 670.518 34.1276 670.32 34.3984C670.122 34.6693 669.969 35 669.859 35.3906C669.75 35.7812 669.695 36.2318 669.695 36.7422V37.0703C669.695 37.4714 669.75 37.849 669.859 38.2031C669.974 38.5521 670.138 38.8594 670.352 39.125C670.57 39.3906 670.833 39.599 671.141 39.75C671.453 39.901 671.807 39.9766 672.203 39.9766C672.714 39.9766 673.146 39.8724 673.5 39.6641C673.854 39.4557 674.164 39.1771 674.43 38.8281L675.305 39.5234C675.122 39.7995 674.891 40.0625 674.609 40.3125C674.328 40.5625 673.982 40.7656 673.57 40.9219C673.164 41.0781 672.682 41.1562 672.125 41.1562ZM679.562 39.6953L681.875 32.5469H683.352L680.312 41H679.344L679.562 39.6953ZM677.633 32.5469L680.016 39.7344L680.18 41H679.211L676.148 32.5469H677.633ZM688.141 41.1562C687.552 41.1562 687.018 41.0573 686.539 40.8594C686.065 40.6562 685.656 40.3724 685.312 40.0078C684.974 39.6432 684.714 39.2109 684.531 38.7109C684.349 38.2109 684.258 37.6641 684.258 37.0703V36.7422C684.258 36.0547 684.359 35.4427 684.562 34.9062C684.766 34.3646 685.042 33.9062 685.391 33.5312C685.74 33.1562 686.135 32.8724 686.578 32.6797C687.021 32.487 687.479 32.3906 687.953 32.3906C688.557 32.3906 689.078 32.4948 689.516 32.7031C689.958 32.9115 690.32 33.2031 690.602 33.5781C690.883 33.9479 691.091 34.3854 691.227 34.8906C691.362 35.3906 691.43 35.9375 691.43 36.5312V37.1797H685.117V36H689.984V35.8906C689.964 35.5156 689.885 35.151 689.75 34.7969C689.62 34.4427 689.411 34.151 689.125 33.9219C688.839 33.6927 688.448 33.5781 687.953 33.5781C687.625 33.5781 687.323 33.6484 687.047 33.7891C686.771 33.9245 686.534 34.1276 686.336 34.3984C686.138 34.6693 685.984 35 685.875 35.3906C685.766 35.7812 685.711 36.2318 685.711 36.7422V37.0703C685.711 37.4714 685.766 37.849 685.875 38.2031C685.99 38.5521 686.154 38.8594 686.367 39.125C686.586 39.3906 686.849 39.599 687.156 39.75C687.469 39.901 687.823 39.9766 688.219 39.9766C688.729 39.9766 689.161 39.8724 689.516 39.6641C689.87 39.4557 690.18 39.1771 690.445 38.8281L691.32 39.5234C691.138 39.7995 690.906 40.0625 690.625 40.3125C690.344 40.5625 689.997 40.7656 689.586 40.9219C689.18 41.0781 688.698 41.1562 688.141 41.1562ZM694.555 34.2266V41H693.102V32.5469H694.477L694.555 34.2266ZM694.258 36.4531L693.586 36.4297C693.591 35.8516 693.667 35.3177 693.812 34.8281C693.958 34.3333 694.174 33.9036 694.461 33.5391C694.747 33.1745 695.104 32.8932 695.531 32.6953C695.958 32.4922 696.453 32.3906 697.016 32.3906C697.411 32.3906 697.776 32.4479 698.109 32.5625C698.443 32.6719 698.732 32.8464 698.977 33.0859C699.221 33.3255 699.411 33.6328 699.547 34.0078C699.682 34.3828 699.75 34.8359 699.75 35.3672V41H698.305V35.4375C698.305 34.9948 698.229 34.6406 698.078 34.375C697.932 34.1094 697.724 33.9167 697.453 33.7969C697.182 33.6719 696.865 33.6094 696.5 33.6094C696.073 33.6094 695.716 33.6849 695.43 33.8359C695.143 33.987 694.914 34.1953 694.742 34.4609C694.57 34.7266 694.445 35.0312 694.367 35.375C694.294 35.7135 694.258 36.0729 694.258 36.4531ZM699.734 35.6562L698.766 35.9531C698.771 35.4896 698.846 35.0443 698.992 34.6172C699.143 34.1901 699.359 33.8099 699.641 33.4766C699.927 33.1432 700.279 32.8802 700.695 32.6875C701.112 32.4896 701.589 32.3906 702.125 32.3906C702.578 32.3906 702.979 32.4505 703.328 32.5703C703.682 32.6901 703.979 32.875 704.219 33.125C704.464 33.3698 704.648 33.6849 704.773 34.0703C704.898 34.4557 704.961 34.9141 704.961 35.4453V41H703.508V35.4297C703.508 34.9557 703.432 34.5885 703.281 34.3281C703.135 34.0625 702.927 33.8776 702.656 33.7734C702.391 33.6641 702.073 33.6094 701.703 33.6094C701.385 33.6094 701.104 33.6641 700.859 33.7734C700.615 33.8828 700.409 34.0339 700.242 34.2266C700.076 34.4141 699.948 34.6302 699.859 34.875C699.776 35.1198 699.734 35.3802 699.734 35.6562ZM710.656 41.1562C710.068 41.1562 709.534 41.0573 709.055 40.8594C708.581 40.6562 708.172 40.3724 707.828 40.0078C707.49 39.6432 707.229 39.2109 707.047 38.7109C706.865 38.2109 706.773 37.6641 706.773 37.0703V36.7422C706.773 36.0547 706.875 35.4427 707.078 34.9062C707.281 34.3646 707.557 33.9062 707.906 33.5312C708.255 33.1562 708.651 32.8724 709.094 32.6797C709.536 32.487 709.995 32.3906 710.469 32.3906C711.073 32.3906 711.594 32.4948 712.031 32.7031C712.474 32.9115 712.836 33.2031 713.117 33.5781C713.398 33.9479 713.607 34.3854 713.742 34.8906C713.878 35.3906 713.945 35.9375 713.945 36.5312V37.1797H707.633V36H712.5V35.8906C712.479 35.5156 712.401 35.151 712.266 34.7969C712.135 34.4427 711.927 34.151 711.641 33.9219C711.354 33.6927 710.964 33.5781 710.469 33.5781C710.141 33.5781 709.839 33.6484 709.562 33.7891C709.286 33.9245 709.049 34.1276 708.852 34.3984C708.654 34.6693 708.5 35 708.391 35.3906C708.281 35.7812 708.227 36.2318 708.227 36.7422V37.0703C708.227 37.4714 708.281 37.849 708.391 38.2031C708.505 38.5521 708.669 38.8594 708.883 39.125C709.102 39.3906 709.365 39.599 709.672 39.75C709.984 39.901 710.339 39.9766 710.734 39.9766C711.245 39.9766 711.677 39.8724 712.031 39.6641C712.385 39.4557 712.695 39.1771 712.961 38.8281L713.836 39.5234C713.654 39.7995 713.422 40.0625 713.141 40.3125C712.859 40.5625 712.513 40.7656 712.102 40.9219C711.695 41.0781 711.214 41.1562 710.656 41.1562ZM717.078 34.3516V41H715.633V32.5469H717L717.078 34.3516ZM716.734 36.4531L716.133 36.4297C716.138 35.8516 716.224 35.3177 716.391 34.8281C716.557 34.3333 716.792 33.9036 717.094 33.5391C717.396 33.1745 717.755 32.8932 718.172 32.6953C718.594 32.4922 719.06 32.3906 719.57 32.3906C719.987 32.3906 720.362 32.4479 720.695 32.5625C721.029 32.6719 721.312 32.849 721.547 33.0938C721.786 33.3385 721.969 33.6562 722.094 34.0469C722.219 34.4323 722.281 34.9036 722.281 35.4609V41H720.828V35.4453C720.828 35.0026 720.763 34.6484 720.633 34.3828C720.503 34.112 720.312 33.9167 720.062 33.7969C719.812 33.6719 719.505 33.6094 719.141 33.6094C718.781 33.6094 718.453 33.6849 718.156 33.8359C717.865 33.987 717.612 34.1953 717.398 34.4609C717.19 34.7266 717.026 35.0312 716.906 35.375C716.792 35.7135 716.734 36.0729 716.734 36.4531ZM728.016 32.5469V33.6562H723.445V32.5469H728.016ZM724.992 30.4922H726.438V38.9062C726.438 39.1927 726.482 39.4089 726.57 39.5547C726.659 39.7005 726.773 39.7969 726.914 39.8438C727.055 39.8906 727.206 39.9141 727.367 39.9141C727.487 39.9141 727.612 39.9036 727.742 39.8828C727.878 39.8568 727.979 39.8359 728.047 39.8203L728.055 41C727.94 41.0365 727.789 41.0703 727.602 41.1016C727.419 41.138 727.198 41.1562 726.938 41.1562C726.583 41.1562 726.258 41.0859 725.961 40.9453C725.664 40.8047 725.427 40.5703 725.25 40.2422C725.078 39.9089 724.992 39.4609 724.992 38.8984V30.4922Z" fill="black"/>
<path d="M786.531 30.6328L782.766 41H781.227L785.562 29.625H786.555L786.531 30.6328ZM789.688 41L785.914 30.6328L785.891 29.625H786.883L791.234 41H789.688ZM789.492 36.7891V38.0234H783.102V36.7891H789.492ZM792.531 29H793.984V39.3594L793.859 41H792.531V29ZM799.695 36.7031V36.8672C799.695 37.4818 799.622 38.0521 799.477 38.5781C799.331 39.099 799.117 39.5521 798.836 39.9375C798.555 40.3229 798.211 40.6224 797.805 40.8359C797.398 41.0495 796.932 41.1562 796.406 41.1562C795.87 41.1562 795.398 41.0651 794.992 40.8828C794.591 40.6953 794.253 40.4271 793.977 40.0781C793.701 39.7292 793.479 39.3073 793.312 38.8125C793.151 38.3177 793.039 37.7604 792.977 37.1406V36.4219C793.039 35.7969 793.151 35.237 793.312 34.7422C793.479 34.2474 793.701 33.8255 793.977 33.4766C794.253 33.1224 794.591 32.8542 794.992 32.6719C795.393 32.4844 795.859 32.3906 796.391 32.3906C796.922 32.3906 797.393 32.4948 797.805 32.7031C798.216 32.9062 798.56 33.1979 798.836 33.5781C799.117 33.9583 799.331 34.4141 799.477 34.9453C799.622 35.4714 799.695 36.0573 799.695 36.7031ZM798.242 36.8672V36.7031C798.242 36.2812 798.203 35.8854 798.125 35.5156C798.047 35.1406 797.922 34.8125 797.75 34.5312C797.578 34.2448 797.352 34.0208 797.07 33.8594C796.789 33.6927 796.443 33.6094 796.031 33.6094C795.667 33.6094 795.349 33.6719 795.078 33.7969C794.812 33.9219 794.586 34.0911 794.398 34.3047C794.211 34.513 794.057 34.7526 793.938 35.0234C793.823 35.2891 793.737 35.5651 793.68 35.8516V37.7344C793.763 38.099 793.898 38.4505 794.086 38.7891C794.279 39.1224 794.534 39.3958 794.852 39.6094C795.174 39.8229 795.573 39.9297 796.047 39.9297C796.438 39.9297 796.771 39.8516 797.047 39.6953C797.328 39.5339 797.555 39.3125 797.727 39.0312C797.904 38.75 798.034 38.4245 798.117 38.0547C798.201 37.6849 798.242 37.2891 798.242 36.8672ZM801.141 36.8672V36.6875C801.141 36.0781 801.229 35.513 801.406 34.9922C801.583 34.4661 801.839 34.0104 802.172 33.625C802.505 33.2344 802.909 32.9323 803.383 32.7188C803.857 32.5 804.388 32.3906 804.977 32.3906C805.57 32.3906 806.104 32.5 806.578 32.7188C807.057 32.9323 807.464 33.2344 807.797 33.625C808.135 34.0104 808.393 34.4661 808.57 34.9922C808.747 35.513 808.836 36.0781 808.836 36.6875V36.8672C808.836 37.4766 808.747 38.0417 808.57 38.5625C808.393 39.0833 808.135 39.5391 807.797 39.9297C807.464 40.3151 807.06 40.6172 806.586 40.8359C806.117 41.0495 805.586 41.1562 804.992 41.1562C804.398 41.1562 803.865 41.0495 803.391 40.8359C802.917 40.6172 802.51 40.3151 802.172 39.9297C801.839 39.5391 801.583 39.0833 801.406 38.5625C801.229 38.0417 801.141 37.4766 801.141 36.8672ZM802.586 36.6875V36.8672C802.586 37.2891 802.635 37.6875 802.734 38.0625C802.833 38.4323 802.982 38.7604 803.18 39.0469C803.383 39.3333 803.635 39.5599 803.938 39.7266C804.24 39.888 804.591 39.9688 804.992 39.9688C805.388 39.9688 805.734 39.888 806.031 39.7266C806.333 39.5599 806.583 39.3333 806.781 39.0469C806.979 38.7604 807.128 38.4323 807.227 38.0625C807.331 37.6875 807.383 37.2891 807.383 36.8672V36.6875C807.383 36.2708 807.331 35.8776 807.227 35.5078C807.128 35.1328 806.977 34.8021 806.773 34.5156C806.576 34.224 806.326 33.9948 806.023 33.8281C805.727 33.6615 805.378 33.5781 804.977 33.5781C804.581 33.5781 804.232 33.6615 803.93 33.8281C803.633 33.9948 803.383 34.224 803.18 34.5156C802.982 34.8021 802.833 35.1328 802.734 35.5078C802.635 35.8776 802.586 36.2708 802.586 36.6875ZM815.82 39.0469V32.5469H817.273V41H815.891L815.82 39.0469ZM816.094 37.2656L816.695 37.25C816.695 37.8125 816.635 38.3333 816.516 38.8125C816.401 39.2865 816.214 39.6979 815.953 40.0469C815.693 40.3958 815.352 40.6693 814.93 40.8672C814.508 41.0599 813.995 41.1562 813.391 41.1562C812.979 41.1562 812.602 41.0964 812.258 40.9766C811.919 40.8568 811.628 40.6719 811.383 40.4219C811.138 40.1719 810.948 39.8464 810.812 39.4453C810.682 39.0443 810.617 38.5625 810.617 38V32.5469H812.062V38.0156C812.062 38.3958 812.104 38.7109 812.188 38.9609C812.276 39.2057 812.393 39.401 812.539 39.5469C812.69 39.6875 812.857 39.7865 813.039 39.8438C813.227 39.901 813.419 39.9297 813.617 39.9297C814.232 39.9297 814.719 39.8125 815.078 39.5781C815.438 39.3385 815.695 39.0182 815.852 38.6172C816.013 38.2109 816.094 37.7604 816.094 37.2656ZM823.016 32.5469V33.6562H818.445V32.5469H823.016ZM819.992 30.4922H821.438V38.9062C821.438 39.1927 821.482 39.4089 821.57 39.5547C821.659 39.7005 821.773 39.7969 821.914 39.8438C822.055 39.8906 822.206 39.9141 822.367 39.9141C822.487 39.9141 822.612 39.9036 822.742 39.8828C822.878 39.8568 822.979 39.8359 823.047 39.8203L823.055 41C822.94 41.0365 822.789 41.0703 822.602 41.1016C822.419 41.138 822.198 41.1562 821.938 41.1562C821.583 41.1562 821.258 41.0859 820.961 40.9453C820.664 40.8047 820.427 40.5703 820.25 40.2422C820.078 39.9089 819.992 39.4609 819.992 38.8984V30.4922ZM835.406 29.625H836.906V37.3203C836.906 38.1745 836.716 38.8854 836.336 39.4531C835.956 40.0208 835.451 40.4479 834.82 40.7344C834.195 41.0156 833.516 41.1562 832.781 41.1562C832.01 41.1562 831.312 41.0156 830.688 40.7344C830.068 40.4479 829.576 40.0208 829.211 39.4531C828.852 38.8854 828.672 38.1745 828.672 37.3203V29.625H830.164V37.3203C830.164 37.9141 830.273 38.4036 830.492 38.7891C830.711 39.1745 831.016 39.4609 831.406 39.6484C831.802 39.8359 832.26 39.9297 832.781 39.9297C833.307 39.9297 833.766 39.8359 834.156 39.6484C834.552 39.4609 834.859 39.1745 835.078 38.7891C835.297 38.4036 835.406 37.9141 835.406 37.3203V29.625ZM843.977 38.7578C843.977 38.5495 843.93 38.3568 843.836 38.1797C843.747 37.9974 843.562 37.8333 843.281 37.6875C843.005 37.5365 842.589 37.4062 842.031 37.2969C841.562 37.1979 841.138 37.0807 840.758 36.9453C840.383 36.8099 840.062 36.6458 839.797 36.4531C839.536 36.2604 839.336 36.0339 839.195 35.7734C839.055 35.513 838.984 35.2083 838.984 34.8594C838.984 34.526 839.057 34.2109 839.203 33.9141C839.354 33.6172 839.565 33.3542 839.836 33.125C840.112 32.8958 840.443 32.7161 840.828 32.5859C841.214 32.4557 841.643 32.3906 842.117 32.3906C842.794 32.3906 843.372 32.5104 843.852 32.75C844.331 32.9896 844.698 33.3099 844.953 33.7109C845.208 34.1068 845.336 34.5469 845.336 35.0312H843.891C843.891 34.7969 843.82 34.5703 843.68 34.3516C843.544 34.1276 843.344 33.9427 843.078 33.7969C842.818 33.651 842.497 33.5781 842.117 33.5781C841.716 33.5781 841.391 33.6406 841.141 33.7656C840.896 33.8854 840.716 34.0391 840.602 34.2266C840.492 34.4141 840.438 34.612 840.438 34.8203C840.438 34.9766 840.464 35.1172 840.516 35.2422C840.573 35.362 840.672 35.474 840.812 35.5781C840.953 35.6771 841.151 35.7708 841.406 35.8594C841.661 35.9479 841.987 36.0365 842.383 36.125C843.076 36.2812 843.646 36.4688 844.094 36.6875C844.542 36.9062 844.875 37.1745 845.094 37.4922C845.312 37.8099 845.422 38.1953 845.422 38.6484C845.422 39.0182 845.344 39.3568 845.188 39.6641C845.036 39.9714 844.815 40.237 844.523 40.4609C844.237 40.6797 843.893 40.8516 843.492 40.9766C843.096 41.0964 842.651 41.1562 842.156 41.1562C841.411 41.1562 840.781 41.0234 840.266 40.7578C839.75 40.4922 839.359 40.1484 839.094 39.7266C838.828 39.3047 838.695 38.8594 838.695 38.3906H840.148C840.169 38.7865 840.284 39.1016 840.492 39.3359C840.701 39.5651 840.956 39.7292 841.258 39.8281C841.56 39.9219 841.859 39.9688 842.156 39.9688C842.552 39.9688 842.883 39.9167 843.148 39.8125C843.419 39.7083 843.625 39.5651 843.766 39.3828C843.906 39.2005 843.977 38.9922 843.977 38.7578Z" fill="black"/>
<path d="M904.523 29.625V41H903.039V29.625H904.523ZM908.18 29.625V30.8594H899.391V29.625H908.18ZM912.375 41.1562C911.786 41.1562 911.253 41.0573 910.773 40.8594C910.299 40.6562 909.891 40.3724 909.547 40.0078C909.208 39.6432 908.948 39.2109 908.766 38.7109C908.583 38.2109 908.492 37.6641 908.492 37.0703V36.7422C908.492 36.0547 908.594 35.4427 908.797 34.9062C909 34.3646 909.276 33.9062 909.625 33.5312C909.974 33.1562 910.37 32.8724 910.812 32.6797C911.255 32.487 911.714 32.3906 912.188 32.3906C912.792 32.3906 913.312 32.4948 913.75 32.7031C914.193 32.9115 914.555 33.2031 914.836 33.5781C915.117 33.9479 915.326 34.3854 915.461 34.8906C915.596 35.3906 915.664 35.9375 915.664 36.5312V37.1797H909.352V36H914.219V35.8906C914.198 35.5156 914.12 35.151 913.984 34.7969C913.854 34.4427 913.646 34.151 913.359 33.9219C913.073 33.6927 912.682 33.5781 912.188 33.5781C911.859 33.5781 911.557 33.6484 911.281 33.7891C911.005 33.9245 910.768 34.1276 910.57 34.3984C910.372 34.6693 910.219 35 910.109 35.3906C910 35.7812 909.945 36.2318 909.945 36.7422V37.0703C909.945 37.4714 910 37.849 910.109 38.2031C910.224 38.5521 910.388 38.8594 910.602 39.125C910.82 39.3906 911.083 39.599 911.391 39.75C911.703 39.901 912.057 39.9766 912.453 39.9766C912.964 39.9766 913.396 39.8724 913.75 39.6641C914.104 39.4557 914.414 39.1771 914.68 38.8281L915.555 39.5234C915.372 39.7995 915.141 40.0625 914.859 40.3125C914.578 40.5625 914.232 40.7656 913.82 40.9219C913.414 41.0781 912.932 41.1562 912.375 41.1562ZM922.273 38.7578C922.273 38.5495 922.227 38.3568 922.133 38.1797C922.044 37.9974 921.859 37.8333 921.578 37.6875C921.302 37.5365 920.885 37.4062 920.328 37.2969C919.859 37.1979 919.435 37.0807 919.055 36.9453C918.68 36.8099 918.359 36.6458 918.094 36.4531C917.833 36.2604 917.633 36.0339 917.492 35.7734C917.352 35.513 917.281 35.2083 917.281 34.8594C917.281 34.526 917.354 34.2109 917.5 33.9141C917.651 33.6172 917.862 33.3542 918.133 33.125C918.409 32.8958 918.74 32.7161 919.125 32.5859C919.51 32.4557 919.94 32.3906 920.414 32.3906C921.091 32.3906 921.669 32.5104 922.148 32.75C922.628 32.9896 922.995 33.3099 923.25 33.7109C923.505 34.1068 923.633 34.5469 923.633 35.0312H922.188C922.188 34.7969 922.117 34.5703 921.977 34.3516C921.841 34.1276 921.641 33.9427 921.375 33.7969C921.115 33.651 920.794 33.5781 920.414 33.5781C920.013 33.5781 919.688 33.6406 919.438 33.7656C919.193 33.8854 919.013 34.0391 918.898 34.2266C918.789 34.4141 918.734 34.612 918.734 34.8203C918.734 34.9766 918.76 35.1172 918.812 35.2422C918.87 35.362 918.969 35.474 919.109 35.5781C919.25 35.6771 919.448 35.7708 919.703 35.8594C919.958 35.9479 920.284 36.0365 920.68 36.125C921.372 36.2812 921.943 36.4688 922.391 36.6875C922.839 36.9062 923.172 37.1745 923.391 37.4922C923.609 37.8099 923.719 38.1953 923.719 38.6484C923.719 39.0182 923.641 39.3568 923.484 39.6641C923.333 39.9714 923.112 40.237 922.82 40.4609C922.534 40.6797 922.19 40.8516 921.789 40.9766C921.393 41.0964 920.948 41.1562 920.453 41.1562C919.708 41.1562 919.078 41.0234 918.562 40.7578C918.047 40.4922 917.656 40.1484 917.391 39.7266C917.125 39.3047 916.992 38.8594 916.992 38.3906H918.445C918.466 38.7865 918.581 39.1016 918.789 39.3359C918.997 39.5651 919.253 39.7292 919.555 39.8281C919.857 39.9219 920.156 39.9688 920.453 39.9688C920.849 39.9688 921.18 39.9167 921.445 39.8125C921.716 39.7083 921.922 39.5651 922.062 39.3828C922.203 39.2005 922.273 38.9922 922.273 38.7578ZM929.156 32.5469V33.6562H924.586V32.5469H929.156ZM926.133 30.4922H927.578V38.9062C927.578 39.1927 927.622 39.4089 927.711 39.5547C927.799 39.7005 927.914 39.7969 928.055 39.8438C928.195 39.8906 928.346 39.9141 928.508 39.9141C928.628 39.9141 928.753 39.9036 928.883 39.8828C929.018 39.8568 929.12 39.8359 929.188 39.8203L929.195 41C929.081 41.0365 928.93 41.0703 928.742 41.1016C928.56 41.138 928.339 41.1562 928.078 41.1562C927.724 41.1562 927.398 41.0859 927.102 40.9453C926.805 40.8047 926.568 40.5703 926.391 40.2422C926.219 39.9089 926.133 39.4609 926.133 38.8984V30.4922ZM932.422 32.5469V41H930.969V32.5469H932.422ZM930.859 30.3047C930.859 30.0703 930.93 29.8724 931.07 29.7109C931.216 29.5495 931.43 29.4688 931.711 29.4688C931.987 29.4688 932.198 29.5495 932.344 29.7109C932.495 29.8724 932.57 30.0703 932.57 30.3047C932.57 30.5286 932.495 30.7214 932.344 30.8828C932.198 31.0391 931.987 31.1172 931.711 31.1172C931.43 31.1172 931.216 31.0391 931.07 30.8828C930.93 30.7214 930.859 30.5286 930.859 30.3047ZM936.18 34.2266V41H934.727V32.5469H936.102L936.18 34.2266ZM935.883 36.4531L935.211 36.4297C935.216 35.8516 935.292 35.3177 935.438 34.8281C935.583 34.3333 935.799 33.9036 936.086 33.5391C936.372 33.1745 936.729 32.8932 937.156 32.6953C937.583 32.4922 938.078 32.3906 938.641 32.3906C939.036 32.3906 939.401 32.4479 939.734 32.5625C940.068 32.6719 940.357 32.8464 940.602 33.0859C940.846 33.3255 941.036 33.6328 941.172 34.0078C941.307 34.3828 941.375 34.8359 941.375 35.3672V41H939.93V35.4375C939.93 34.9948 939.854 34.6406 939.703 34.375C939.557 34.1094 939.349 33.9167 939.078 33.7969C938.807 33.6719 938.49 33.6094 938.125 33.6094C937.698 33.6094 937.341 33.6849 937.055 33.8359C936.768 33.987 936.539 34.1953 936.367 34.4609C936.195 34.7266 936.07 35.0312 935.992 35.375C935.919 35.7135 935.883 36.0729 935.883 36.4531ZM941.359 35.6562L940.391 35.9531C940.396 35.4896 940.471 35.0443 940.617 34.6172C940.768 34.1901 940.984 33.8099 941.266 33.4766C941.552 33.1432 941.904 32.8802 942.32 32.6875C942.737 32.4896 943.214 32.3906 943.75 32.3906C944.203 32.3906 944.604 32.4505 944.953 32.5703C945.307 32.6901 945.604 32.875 945.844 33.125C946.089 33.3698 946.273 33.6849 946.398 34.0703C946.523 34.4557 946.586 34.9141 946.586 35.4453V41H945.133V35.4297C945.133 34.9557 945.057 34.5885 944.906 34.3281C944.76 34.0625 944.552 33.8776 944.281 33.7734C944.016 33.6641 943.698 33.6094 943.328 33.6094C943.01 33.6094 942.729 33.6641 942.484 33.7734C942.24 33.8828 942.034 34.0339 941.867 34.2266C941.701 34.4141 941.573 34.6302 941.484 34.875C941.401 35.1198 941.359 35.3802 941.359 35.6562ZM948.391 36.8672V36.6875C948.391 36.0781 948.479 35.513 948.656 34.9922C948.833 34.4661 949.089 34.0104 949.422 33.625C949.755 33.2344 950.159 32.9323 950.633 32.7188C951.107 32.5 951.638 32.3906 952.227 32.3906C952.82 32.3906 953.354 32.5 953.828 32.7188C954.307 32.9323 954.714 33.2344 955.047 33.625C955.385 34.0104 955.643 34.4661 955.82 34.9922C955.997 35.513 956.086 36.0781 956.086 36.6875V36.8672C956.086 37.4766 955.997 38.0417 955.82 38.5625C955.643 39.0833 955.385 39.5391 955.047 39.9297C954.714 40.3151 954.31 40.6172 953.836 40.8359C953.367 41.0495 952.836 41.1562 952.242 41.1562C951.648 41.1562 951.115 41.0495 950.641 40.8359C950.167 40.6172 949.76 40.3151 949.422 39.9297C949.089 39.5391 948.833 39.0833 948.656 38.5625C948.479 38.0417 948.391 37.4766 948.391 36.8672ZM949.836 36.6875V36.8672C949.836 37.2891 949.885 37.6875 949.984 38.0625C950.083 38.4323 950.232 38.7604 950.43 39.0469C950.633 39.3333 950.885 39.5599 951.188 39.7266C951.49 39.888 951.841 39.9688 952.242 39.9688C952.638 39.9688 952.984 39.888 953.281 39.7266C953.583 39.5599 953.833 39.3333 954.031 39.0469C954.229 38.7604 954.378 38.4323 954.477 38.0625C954.581 37.6875 954.633 37.2891 954.633 36.8672V36.6875C954.633 36.2708 954.581 35.8776 954.477 35.5078C954.378 35.1328 954.227 34.8021 954.023 34.5156C953.826 34.224 953.576 33.9948 953.273 33.8281C952.977 33.6615 952.628 33.5781 952.227 33.5781C951.831 33.5781 951.482 33.6615 951.18 33.8281C950.883 33.9948 950.633 34.224 950.43 34.5156C950.232 34.8021 950.083 35.1328 949.984 35.5078C949.885 35.8776 949.836 36.2708 949.836 36.6875ZM959.344 34.3516V41H957.898V32.5469H959.266L959.344 34.3516ZM959 36.4531L958.398 36.4297C958.404 35.8516 958.49 35.3177 958.656 34.8281C958.823 34.3333 959.057 33.9036 959.359 33.5391C959.661 33.1745 960.021 32.8932 960.438 32.6953C960.859 32.4922 961.326 32.3906 961.836 32.3906C962.253 32.3906 962.628 32.4479 962.961 32.5625C963.294 32.6719 963.578 32.849 963.812 33.0938C964.052 33.3385 964.234 33.6562 964.359 34.0469C964.484 34.4323 964.547 34.9036 964.547 35.4609V41H963.094V35.4453C963.094 35.0026 963.029 34.6484 962.898 34.3828C962.768 34.112 962.578 33.9167 962.328 33.7969C962.078 33.6719 961.771 33.6094 961.406 33.6094C961.047 33.6094 960.719 33.6849 960.422 33.8359C960.13 33.987 959.878 34.1953 959.664 34.4609C959.456 34.7266 959.292 35.0312 959.172 35.375C959.057 35.7135 959 36.0729 959 36.4531ZM968.312 32.5469V41H966.859V32.5469H968.312ZM966.75 30.3047C966.75 30.0703 966.82 29.8724 966.961 29.7109C967.107 29.5495 967.32 29.4688 967.602 29.4688C967.878 29.4688 968.089 29.5495 968.234 29.7109C968.385 29.8724 968.461 30.0703 968.461 30.3047C968.461 30.5286 968.385 30.7214 968.234 30.8828C968.089 31.0391 967.878 31.1172 967.602 31.1172C967.32 31.1172 967.107 31.0391 966.961 30.8828C966.82 30.7214 966.75 30.5286 966.75 30.3047ZM975.617 39.5547V35.2031C975.617 34.8698 975.549 34.5807 975.414 34.3359C975.284 34.0859 975.086 33.8932 974.82 33.7578C974.555 33.6224 974.227 33.5547 973.836 33.5547C973.471 33.5547 973.151 33.6172 972.875 33.7422C972.604 33.8672 972.391 34.0312 972.234 34.2344C972.083 34.4375 972.008 34.6562 972.008 34.8906H970.562C970.562 34.5885 970.641 34.2891 970.797 33.9922C970.953 33.6953 971.177 33.4271 971.469 33.1875C971.766 32.9427 972.12 32.75 972.531 32.6094C972.948 32.4635 973.411 32.3906 973.922 32.3906C974.536 32.3906 975.078 32.4948 975.547 32.7031C976.021 32.9115 976.391 33.2266 976.656 33.6484C976.927 34.0651 977.062 34.5885 977.062 35.2188V39.1562C977.062 39.4375 977.086 39.737 977.133 40.0547C977.185 40.3724 977.26 40.6458 977.359 40.875V41H975.852C975.779 40.8333 975.721 40.612 975.68 40.3359C975.638 40.0547 975.617 39.7943 975.617 39.5547ZM975.867 35.875L975.883 36.8906H974.422C974.01 36.8906 973.643 36.9245 973.32 36.9922C972.997 37.0547 972.727 37.151 972.508 37.2812C972.289 37.4115 972.122 37.5755 972.008 37.7734C971.893 37.9661 971.836 38.1927 971.836 38.4531C971.836 38.7188 971.896 38.9609 972.016 39.1797C972.135 39.3984 972.315 39.5729 972.555 39.7031C972.799 39.8281 973.099 39.8906 973.453 39.8906C973.896 39.8906 974.286 39.7969 974.625 39.6094C974.964 39.4219 975.232 39.1927 975.43 38.9219C975.633 38.651 975.742 38.388 975.758 38.1328L976.375 38.8281C976.339 39.0469 976.24 39.2891 976.078 39.5547C975.917 39.8203 975.701 40.0755 975.43 40.3203C975.164 40.5599 974.846 40.7604 974.477 40.9219C974.112 41.0781 973.701 41.1562 973.242 41.1562C972.669 41.1562 972.167 41.0443 971.734 40.8203C971.307 40.5964 970.974 40.2969 970.734 39.9219C970.5 39.5417 970.383 39.1172 970.383 38.6484C970.383 38.1953 970.471 37.7969 970.648 37.4531C970.826 37.1042 971.081 36.8151 971.414 36.5859C971.747 36.3516 972.148 36.1745 972.617 36.0547C973.086 35.9349 973.609 35.875 974.188 35.875H975.867ZM980.906 29V41H979.453V29H980.906Z" fill="black"/>
</g>
<rect x="1024.5" y="15.5" width="81" height="41" rx="5.5" stroke="black"/>
<path d="M1053.22 39.7734V41H1047.53V39.7734H1053.22ZM1047.83 29.625V41H1046.32V29.625H1047.83ZM1054.34 36.8672V36.6875C1054.34 36.0781 1054.43 35.513 1054.61 34.9922C1054.79 34.4661 1055.04 34.0104 1055.38 33.625C1055.71 33.2344 1056.11 32.9323 1056.59 32.7188C1057.06 32.5 1057.59 32.3906 1058.18 32.3906C1058.77 32.3906 1059.31 32.5 1059.78 32.7188C1060.26 32.9323 1060.67 33.2344 1061 33.625C1061.34 34.0104 1061.6 34.4661 1061.77 34.9922C1061.95 35.513 1062.04 36.0781 1062.04 36.6875V36.8672C1062.04 37.4766 1061.95 38.0417 1061.77 38.5625C1061.6 39.0833 1061.34 39.5391 1061 39.9297C1060.67 40.3151 1060.26 40.6172 1059.79 40.8359C1059.32 41.0495 1058.79 41.1562 1058.2 41.1562C1057.6 41.1562 1057.07 41.0495 1056.59 40.8359C1056.12 40.6172 1055.71 40.3151 1055.38 39.9297C1055.04 39.5391 1054.79 39.0833 1054.61 38.5625C1054.43 38.0417 1054.34 37.4766 1054.34 36.8672ZM1055.79 36.6875V36.8672C1055.79 37.2891 1055.84 37.6875 1055.94 38.0625C1056.04 38.4323 1056.18 38.7604 1056.38 39.0469C1056.59 39.3333 1056.84 39.5599 1057.14 39.7266C1057.44 39.888 1057.79 39.9688 1058.2 39.9688C1058.59 39.9688 1058.94 39.888 1059.23 39.7266C1059.54 39.5599 1059.79 39.3333 1059.98 39.0469C1060.18 38.7604 1060.33 38.4323 1060.43 38.0625C1060.53 37.6875 1060.59 37.2891 1060.59 36.8672V36.6875C1060.59 36.2708 1060.53 35.8776 1060.43 35.5078C1060.33 35.1328 1060.18 34.8021 1059.98 34.5156C1059.78 34.224 1059.53 33.9948 1059.23 33.8281C1058.93 33.6615 1058.58 33.5781 1058.18 33.5781C1057.78 33.5781 1057.43 33.6615 1057.13 33.8281C1056.84 33.9948 1056.59 34.224 1056.38 34.5156C1056.18 34.8021 1056.04 35.1328 1055.94 35.5078C1055.84 35.8776 1055.79 36.2708 1055.79 36.6875ZM1069.33 32.5469H1070.64V40.8203C1070.64 41.5651 1070.49 42.2005 1070.19 42.7266C1069.89 43.2526 1069.46 43.651 1068.92 43.9219C1068.39 44.1979 1067.77 44.3359 1067.06 44.3359C1066.77 44.3359 1066.43 44.2891 1066.03 44.1953C1065.64 44.1068 1065.26 43.9531 1064.88 43.7344C1064.5 43.5208 1064.18 43.2318 1063.93 42.8672L1064.69 42.0078C1065.04 42.4349 1065.41 42.7318 1065.8 42.8984C1066.19 43.0651 1066.57 43.1484 1066.95 43.1484C1067.41 43.1484 1067.81 43.0625 1068.14 42.8906C1068.47 42.7188 1068.73 42.4635 1068.91 42.125C1069.1 41.7917 1069.2 41.3802 1069.2 40.8906V34.4062L1069.33 32.5469ZM1063.51 36.8672V36.7031C1063.51 36.0573 1063.58 35.4714 1063.73 34.9453C1063.89 34.4141 1064.11 33.9583 1064.4 33.5781C1064.69 33.1979 1065.04 32.9062 1065.45 32.7031C1065.86 32.4948 1066.33 32.3906 1066.84 32.3906C1067.38 32.3906 1067.84 32.4844 1068.23 32.6719C1068.64 32.8542 1068.97 33.1224 1069.25 33.4766C1069.53 33.8255 1069.75 34.2474 1069.91 34.7422C1070.08 35.237 1070.19 35.7969 1070.25 36.4219V37.1406C1070.19 37.7604 1070.08 38.3177 1069.91 38.8125C1069.75 39.3073 1069.53 39.7292 1069.25 40.0781C1068.97 40.4271 1068.64 40.6953 1068.23 40.8828C1067.83 41.0651 1067.36 41.1562 1066.83 41.1562C1066.32 41.1562 1065.86 41.0495 1065.45 40.8359C1065.05 40.6224 1064.7 40.3229 1064.41 39.9375C1064.11 39.5521 1063.89 39.099 1063.73 38.5781C1063.58 38.0521 1063.51 37.4818 1063.51 36.8672ZM1064.95 36.7031V36.8672C1064.95 37.2891 1064.99 37.6849 1065.08 38.0547C1065.17 38.4245 1065.3 38.75 1065.48 39.0312C1065.66 39.3125 1065.89 39.5339 1066.17 39.6953C1066.45 39.8516 1066.79 39.9297 1067.18 39.9297C1067.66 39.9297 1068.05 39.8281 1068.37 39.625C1068.68 39.4219 1068.93 39.1536 1069.11 38.8203C1069.3 38.487 1069.44 38.125 1069.55 37.7344V35.8516C1069.49 35.5651 1069.4 35.2891 1069.28 35.0234C1069.17 34.7526 1069.02 34.513 1068.83 34.3047C1068.65 34.0911 1068.42 33.9219 1068.15 33.7969C1067.88 33.6719 1067.56 33.6094 1067.2 33.6094C1066.8 33.6094 1066.46 33.6927 1066.17 33.8594C1065.89 34.0208 1065.66 34.2448 1065.48 34.5312C1065.3 34.8125 1065.17 35.1406 1065.08 35.5156C1064.99 35.8854 1064.95 36.2812 1064.95 36.7031ZM1074.41 32.5469V41H1072.95V32.5469H1074.41ZM1072.84 30.3047C1072.84 30.0703 1072.91 29.8724 1073.05 29.7109C1073.2 29.5495 1073.41 29.4688 1073.7 29.4688C1073.97 29.4688 1074.18 29.5495 1074.33 29.7109C1074.48 29.8724 1074.55 30.0703 1074.55 30.3047C1074.55 30.5286 1074.48 30.7214 1074.33 30.8828C1074.18 31.0391 1073.97 31.1172 1073.7 31.1172C1073.41 31.1172 1073.2 31.0391 1073.05 30.8828C1072.91 30.7214 1072.84 30.5286 1072.84 30.3047ZM1078.17 34.3516V41H1076.73V32.5469H1078.09L1078.17 34.3516ZM1077.83 36.4531L1077.23 36.4297C1077.23 35.8516 1077.32 35.3177 1077.48 34.8281C1077.65 34.3333 1077.89 33.9036 1078.19 33.5391C1078.49 33.1745 1078.85 32.8932 1079.27 32.6953C1079.69 32.4922 1080.15 32.3906 1080.66 32.3906C1081.08 32.3906 1081.46 32.4479 1081.79 32.5625C1082.12 32.6719 1082.41 32.849 1082.64 33.0938C1082.88 33.3385 1083.06 33.6562 1083.19 34.0469C1083.31 34.4323 1083.38 34.9036 1083.38 35.4609V41H1081.92V35.4453C1081.92 35.0026 1081.86 34.6484 1081.73 34.3828C1081.6 34.112 1081.41 33.9167 1081.16 33.7969C1080.91 33.6719 1080.6 33.6094 1080.23 33.6094C1079.88 33.6094 1079.55 33.6849 1079.25 33.8359C1078.96 33.987 1078.71 34.1953 1078.49 34.4609C1078.28 34.7266 1078.12 35.0312 1078 35.375C1077.89 35.7135 1077.83 36.0729 1077.83 36.4531Z" fill="black"/>
<rect x="1120.5" y="15.5" width="96" height="41" rx="5.5" fill="black"/>
<rect x="1120.5" y="15.5" width="96" height="41" rx="5.5" stroke="black"/>
<path d="M1148.38 38.125C1148.38 37.8594 1148.34 37.625 1148.26 37.4219C1148.18 37.2135 1148.04 37.026 1147.84 36.8594C1147.64 36.6927 1147.36 36.5339 1147.01 36.3828C1146.66 36.2318 1146.22 36.0781 1145.68 35.9219C1145.12 35.7552 1144.61 35.5703 1144.16 35.3672C1143.7 35.1589 1143.32 34.9219 1142.99 34.6562C1142.67 34.3906 1142.42 34.0859 1142.25 33.7422C1142.08 33.3984 1141.99 33.0052 1141.99 32.5625C1141.99 32.1198 1142.08 31.7109 1142.27 31.3359C1142.45 30.9609 1142.71 30.6354 1143.05 30.3594C1143.39 30.0781 1143.8 29.8594 1144.27 29.7031C1144.75 29.5469 1145.28 29.4688 1145.86 29.4688C1146.71 29.4688 1147.44 29.6328 1148.03 29.9609C1148.63 30.2839 1149.09 30.7083 1149.4 31.2344C1149.71 31.7552 1149.87 32.3125 1149.87 32.9062H1148.37C1148.37 32.4792 1148.28 32.1016 1148.09 31.7734C1147.91 31.4401 1147.64 31.1797 1147.27 30.9922C1146.9 30.7995 1146.43 30.7031 1145.86 30.7031C1145.32 30.7031 1144.88 30.7839 1144.53 30.9453C1144.18 31.1068 1143.92 31.3255 1143.75 31.6016C1143.58 31.8776 1143.5 32.1927 1143.5 32.5469C1143.5 32.7865 1143.55 33.0052 1143.65 33.2031C1143.75 33.3958 1143.91 33.5755 1144.12 33.7422C1144.34 33.9089 1144.62 34.0625 1144.95 34.2031C1145.29 34.3438 1145.7 34.4792 1146.16 34.6094C1146.81 34.7917 1147.37 34.9948 1147.84 35.2188C1148.3 35.4427 1148.69 35.6953 1148.99 35.9766C1149.3 36.2526 1149.53 36.5677 1149.67 36.9219C1149.82 37.2708 1149.9 37.6667 1149.9 38.1094C1149.9 38.5729 1149.8 38.9922 1149.62 39.3672C1149.43 39.7422 1149.16 40.0625 1148.81 40.3281C1148.46 40.5938 1148.04 40.7995 1147.55 40.9453C1147.07 41.0859 1146.53 41.1562 1145.93 41.1562C1145.4 41.1562 1144.89 41.0833 1144.38 40.9375C1143.87 40.7917 1143.41 40.5729 1142.99 40.2812C1142.58 39.9896 1142.25 39.6302 1142 39.2031C1141.76 38.7708 1141.63 38.2708 1141.63 37.7031H1143.13C1143.13 38.0938 1143.21 38.4297 1143.36 38.7109C1143.51 38.987 1143.72 39.2161 1143.98 39.3984C1144.24 39.5807 1144.54 39.7161 1144.88 39.8047C1145.21 39.888 1145.57 39.9297 1145.93 39.9297C1146.46 39.9297 1146.9 39.8568 1147.27 39.7109C1147.63 39.5651 1147.91 39.3568 1148.09 39.0859C1148.29 38.8151 1148.38 38.4948 1148.38 38.125ZM1153.17 32.5469V41H1151.72V32.5469H1153.17ZM1151.61 30.3047C1151.61 30.0703 1151.68 29.8724 1151.82 29.7109C1151.97 29.5495 1152.18 29.4688 1152.46 29.4688C1152.74 29.4688 1152.95 29.5495 1153.09 29.7109C1153.24 29.8724 1153.32 30.0703 1153.32 30.3047C1153.32 30.5286 1153.24 30.7214 1153.09 30.8828C1152.95 31.0391 1152.74 31.1172 1152.46 31.1172C1152.18 31.1172 1151.97 31.0391 1151.82 30.8828C1151.68 30.7214 1151.61 30.5286 1151.61 30.3047ZM1160.97 32.5469H1162.28V40.8203C1162.28 41.5651 1162.13 42.2005 1161.83 42.7266C1161.53 43.2526 1161.1 43.651 1160.56 43.9219C1160.03 44.1979 1159.41 44.3359 1158.7 44.3359C1158.41 44.3359 1158.07 44.2891 1157.67 44.1953C1157.28 44.1068 1156.9 43.9531 1156.52 43.7344C1156.14 43.5208 1155.83 43.2318 1155.57 42.8672L1156.33 42.0078C1156.68 42.4349 1157.05 42.7318 1157.44 42.8984C1157.83 43.0651 1158.21 43.1484 1158.59 43.1484C1159.05 43.1484 1159.45 43.0625 1159.78 42.8906C1160.11 42.7188 1160.37 42.4635 1160.55 42.125C1160.74 41.7917 1160.84 41.3802 1160.84 40.8906V34.4062L1160.97 32.5469ZM1155.15 36.8672V36.7031C1155.15 36.0573 1155.22 35.4714 1155.38 34.9453C1155.53 34.4141 1155.75 33.9583 1156.04 33.5781C1156.33 33.1979 1156.68 32.9062 1157.09 32.7031C1157.51 32.4948 1157.97 32.3906 1158.48 32.3906C1159.02 32.3906 1159.48 32.4844 1159.88 32.6719C1160.28 32.8542 1160.61 33.1224 1160.89 33.4766C1161.17 33.8255 1161.39 34.2474 1161.55 34.7422C1161.72 35.237 1161.83 35.7969 1161.89 36.4219V37.1406C1161.83 37.7604 1161.72 38.3177 1161.55 38.8125C1161.39 39.3073 1161.17 39.7292 1160.89 40.0781C1160.61 40.4271 1160.28 40.6953 1159.88 40.8828C1159.47 41.0651 1159.01 41.1562 1158.47 41.1562C1157.96 41.1562 1157.51 41.0495 1157.09 40.8359C1156.69 40.6224 1156.34 40.3229 1156.05 39.9375C1155.76 39.5521 1155.53 39.099 1155.38 38.5781C1155.22 38.0521 1155.15 37.4818 1155.15 36.8672ZM1156.59 36.7031V36.8672C1156.59 37.2891 1156.64 37.6849 1156.72 38.0547C1156.81 38.4245 1156.94 38.75 1157.12 39.0312C1157.3 39.3125 1157.53 39.5339 1157.81 39.6953C1158.09 39.8516 1158.43 39.9297 1158.82 39.9297C1159.3 39.9297 1159.7 39.8281 1160.01 39.625C1160.32 39.4219 1160.57 39.1536 1160.75 38.8203C1160.94 38.487 1161.08 38.125 1161.19 37.7344V35.8516C1161.13 35.5651 1161.04 35.2891 1160.92 35.0234C1160.81 34.7526 1160.66 34.513 1160.47 34.3047C1160.29 34.0911 1160.06 33.9219 1159.79 33.7969C1159.52 33.6719 1159.2 33.6094 1158.84 33.6094C1158.44 33.6094 1158.1 33.6927 1157.81 33.8594C1157.53 34.0208 1157.3 34.2448 1157.12 34.5312C1156.94 34.8125 1156.81 35.1406 1156.72 35.5156C1156.64 35.8854 1156.59 36.2812 1156.59 36.7031ZM1165.92 34.3516V41H1164.48V32.5469H1165.84L1165.92 34.3516ZM1165.58 36.4531L1164.98 36.4297C1164.98 35.8516 1165.07 35.3177 1165.23 34.8281C1165.4 34.3333 1165.64 33.9036 1165.94 33.5391C1166.24 33.1745 1166.6 32.8932 1167.02 32.6953C1167.44 32.4922 1167.9 32.3906 1168.41 32.3906C1168.83 32.3906 1169.21 32.4479 1169.54 32.5625C1169.87 32.6719 1170.16 32.849 1170.39 33.0938C1170.63 33.3385 1170.81 33.6562 1170.94 34.0469C1171.06 34.4323 1171.12 34.9036 1171.12 35.4609V41H1169.67V35.4453C1169.67 35.0026 1169.61 34.6484 1169.48 34.3828C1169.35 34.112 1169.16 33.9167 1168.91 33.7969C1168.66 33.6719 1168.35 33.6094 1167.98 33.6094C1167.62 33.6094 1167.3 33.6849 1167 33.8359C1166.71 33.987 1166.46 34.1953 1166.24 34.4609C1166.03 34.7266 1165.87 35.0312 1165.75 35.375C1165.64 35.7135 1165.58 36.0729 1165.58 36.4531ZM1184.02 29.625H1185.52V37.3203C1185.52 38.1745 1185.33 38.8854 1184.95 39.4531C1184.57 40.0208 1184.06 40.4479 1183.43 40.7344C1182.8 41.0156 1182.12 41.1562 1181.39 41.1562C1180.62 41.1562 1179.92 41.0156 1179.3 40.7344C1178.68 40.4479 1178.18 40.0208 1177.82 39.4531C1177.46 38.8854 1177.28 38.1745 1177.28 37.3203V29.625H1178.77V37.3203C1178.77 37.9141 1178.88 38.4036 1179.1 38.7891C1179.32 39.1745 1179.62 39.4609 1180.02 39.6484C1180.41 39.8359 1180.87 39.9297 1181.39 39.9297C1181.92 39.9297 1182.38 39.8359 1182.77 39.6484C1183.16 39.4609 1183.47 39.1745 1183.69 38.7891C1183.91 38.4036 1184.02 37.9141 1184.02 37.3203V29.625ZM1189.11 34.1719V44.25H1187.66V32.5469H1188.98L1189.11 34.1719ZM1194.8 36.7031V36.8672C1194.8 37.4818 1194.73 38.0521 1194.59 38.5781C1194.44 39.099 1194.23 39.5521 1193.95 39.9375C1193.67 40.3229 1193.33 40.6224 1192.92 40.8359C1192.52 41.0495 1192.05 41.1562 1191.52 41.1562C1190.99 41.1562 1190.51 41.0677 1190.1 40.8906C1189.69 40.7135 1189.34 40.4557 1189.05 40.1172C1188.77 39.7786 1188.54 39.3724 1188.37 38.8984C1188.2 38.4245 1188.09 37.8906 1188.02 37.2969V36.4219C1188.09 35.7969 1188.2 35.237 1188.38 34.7422C1188.55 34.2474 1188.77 33.8255 1189.05 33.4766C1189.34 33.1224 1189.69 32.8542 1190.09 32.6719C1190.5 32.4844 1190.97 32.3906 1191.5 32.3906C1192.03 32.3906 1192.5 32.4948 1192.91 32.7031C1193.33 32.9062 1193.67 33.1979 1193.95 33.5781C1194.23 33.9583 1194.45 34.4141 1194.59 34.9453C1194.73 35.4714 1194.8 36.0573 1194.8 36.7031ZM1193.35 36.8672V36.7031C1193.35 36.2812 1193.31 35.8854 1193.22 35.5156C1193.13 35.1406 1192.99 34.8125 1192.8 34.5312C1192.62 34.2448 1192.39 34.0208 1192.1 33.8594C1191.82 33.6927 1191.47 33.6094 1191.08 33.6094C1190.71 33.6094 1190.4 33.6719 1190.12 33.7969C1189.86 33.9219 1189.63 34.0911 1189.45 34.3047C1189.26 34.513 1189.1 34.7526 1188.98 35.0234C1188.87 35.2891 1188.78 35.5651 1188.73 35.8516V37.875C1188.83 38.2396 1188.98 38.5833 1189.16 38.9062C1189.35 39.224 1189.6 39.4818 1189.91 39.6797C1190.23 39.8724 1190.62 39.9688 1191.09 39.9688C1191.48 39.9688 1191.82 39.888 1192.1 39.7266C1192.39 39.5599 1192.62 39.3333 1192.8 39.0469C1192.99 38.7604 1193.13 38.4323 1193.22 38.0625C1193.31 37.6875 1193.35 37.2891 1193.35 36.8672Z" fill="white"/>
<defs>
<clipPath id="clip0_1_763">
<rect width="687" height="44" fill="white" transform="translate(306 14)"/>
</clipPath>
</defs>
</svg>
